<?xml version="1.0" encoding="utf-8"?>
<!-- Generator: Adobe Illustrator 23.0.0, SVG Export Plug-In . SVG Version: 6.00 Build 0)  -->
<svg version="1.1" id="Layer_1" xmlns="http://www.w3.org/2000/svg" xmlns:xlink="http://www.w3.org/1999/xlink" x="0px" y="0px"
	 viewBox="0 0 96 96" style="enable-background:new 0 0 96 96;" xml:space="preserve">
<style type="text/css">
	.st0{fill:#FFFFFF;}
</style>
<g>
	<path class="st0" d="M34.4,54.9c-2.4,0-4.6,0-6.9,0c-2.1,0-4.2,0-6.2,0c-1.3,0-1.6,0.3-1.6,1.6c0,4.9,0,9.8,0,14.8
		c0,1.1,0.6,1.8,1.5,1.8c0.9,0,1.5-0.6,1.5-1.8c0-4,0-8.1,0-12.1c0-1.2,0.4-1.4,1.4-1.4c3.1,0.1,6.2,0.1,9.4,0c1,0,1.2,0.3,1.2,1.2
		c-0.1,3.8,0,7.6-0.1,11.4c-0.1,5-2.5,7.5-7.4,7.6c-3.9,0.1-7.8,0.1-11.8,0.1c-0.9,0-1.9-0.2-2.8-0.4c-2.9-0.8-4.4-2.9-4.7-5.8
		c-0.1-1.1-0.2-2.2-0.2-3.2c0-14,0-28.1,0-42.1c0-6.2,2.4-8.6,8.6-8.6c3.7,0,7.4,0,11,0c4.5,0.1,7.3,2.7,7.3,7.2
		c0.1,9.6,0,19.3,0,28.9C34.5,54.3,34.4,54.5,34.4,54.9z M22.5,36c0-3.6,0-7.1,0-10.7c0-0.8-0.6-1.6-1.4-1.6c-1.1,0-1.5,1-1.5,1.9
		c0,6.8,0,13.7,0,20.5c0,0.3,0,0.6,0,1c0.1,0.8,0.6,1.2,1.4,1.2c0.8,0,1.4-0.4,1.5-1.3c0-0.4,0-0.7,0-1.1
		C22.5,42.7,22.5,39.3,22.5,36z"/>
	<path class="st0" d="M50.4,57.8c0,0.6,0,1,0,1.5c0,4,0,8,0,12c0,1.3,0.5,1.8,1.6,1.8c1.2,0,1.3-0.8,1.3-1.7c0-5,0-9.9,0-14.9
		c0-1.4-0.2-1.6-1.6-1.6c-4,0-8.1,0-12.1,0c-1,0-1.2-0.3-1.2-1.2c0-9.3,0-18.6,0.1-28c0-0.8,0.1-1.5,0.2-2.3
		c0.5-2.3,1.7-4.1,3.9-4.9c1.7-0.6,3.6-0.6,5.4-0.6c2.9,0,5.9,0,8.8,0c2,0,4.1,0.1,5.7,1.2c1.3,0.9,2.1,2.4,2.5,3.9
		c0.4,1.5,0.4,3.1,0.4,4.7c0,5.5,0,11.1,0,16.6c0,0.3,0,0.6-0.2,0.7c-0.2,0.2-0.5,0.2-0.8,0.2c-3.3,0-6.7,0-10,0
		c-0.2,0-0.5,0-0.7-0.1c-0.3-0.2-0.3-0.6-0.3-1c0-6,0-11.9,0-17.9c0-1.3,0.1-2.8-1.5-2.7c-0.8,0.1-1.3,0.5-1.3,1.4
		c0,1.2,0,2.3,0,3.5c0,6,0,12,0,18c0,1.6,0.3,1.9,1.9,1.9c3.9,0,7.8,0,11.6,0c1,0,1.4,0.2,1.4,1.3c-0.1,6.9,0,13.8-0.1,20.8
		c0,2.7-0.7,5.1-3.2,6.6c-0.8,0.5-1.9,0.9-2.8,0.9C54.6,78,50,78.1,45.4,78c-4.4-0.1-6.9-2.6-7.1-7c-0.1-4.1,0-8.2-0.1-12.4
		c0-0.6,0.2-0.9,0.8-0.9C42.8,57.8,46.5,57.8,50.4,57.8z"/>
	<path class="st0" d="M69.1,77.9c0-0.4,0-0.9,0-1.3c0-12.8,0-25.7,0-38.5c0-1.2,0.3-1.5,1.5-1.5c3.1,0.1,6.2,0.1,9.4,0
		c0.8,0,1.1,0.2,1.1,1.1c0,13.1,0,26.2,0,39.3c0,0.6,0,1.1-0.9,1.1c-3.5,0-7,0-10.4,0C69.6,78.1,69.4,78,69.1,77.9z"/>
	<path class="st0" d="M75.6,18c1.9,0,3.8,0,5.6,0c1.3,0,1.7,0.5,1.7,1.7c0,2.5,0,5,0,7.6c0,1.3-0.4,1.8-1.8,1.9
		c-3.7,0.4-7.3,0.7-11,1.1c-1.3,0.1-1.8-0.3-1.8-1.6c-0.1-3-0.1-5.9-0.2-8.9c0-1.4,0.4-1.8,1.9-1.8C71.9,18,73.7,18,75.6,18z"/>
	<path class="st0" d="M69.7,32c2.3-0.2,4.3-0.4,6.3-0.6c2-0.2,4-0.3,6-0.6c1.3-0.2,2.4,0.1,3.6,0.6c1,0.4,2.2,0.8,3,1.4
		c-1.8,0.4-3.8,0.5-5.6,0.7c-1.6,0.2-3.2,0.4-4.8,0.6c-1.4,0.2-2.7,0.4-4.1,0C72.5,33.7,71.1,32.9,69.7,32z"/>
</g>
</svg>
